<svg xmlns="http://www.w3.org/2000/svg" viewBox="0 0 400 400" width="400" height="400">
  <path fill="#ee3d42" d="M153.44,2.47c27.54-6.45,50.76-1.78,71.79,32.06l153.56,247.09c12.09,19.51-1.58,39.03-21.99,45.13l-54.61,12.76c-24.25,4.32-42.83-6.48-55.61-27.03l-19.21-30.9-3.91.89-93.44,20.99v-.02l7.88-56.4c3.42-24.63,14.39-39.19,32.59-43.29l7.45-1.68-63.34-101.89-26.16,194.87c-2.23,16.63-3.67,27.28,15.14,22.89l23.01-5.37-3.87,28.85c-3.64,27.2-13.6,42.01-34.03,46.76l-47.19,10.97c-20.35,4.75-27.12-11.02-24.17-33.14L59.29,53.17c2.94-21.91,12.98-31.77,33.5-36.55l60.65-14.15Z"/>
</svg>
